<svg width="32" height="32" viewBox="0 0 32 32" fill="none" xmlns="http://www.w3.org/2000/svg">
  <!-- Background circle with gradient -->
  <defs>
    <linearGradient id="bgGradient" x1="0%" y1="0%" x2="100%" y2="100%">
      <stop offset="0%" style="stop-color:#10B981;stop-opacity:1" />
      <stop offset="100%" style="stop-color:#059669;stop-opacity:1" />
    </linearGradient>
  </defs>
  <circle cx="16" cy="16" r="16" fill="url(#bgGradient)"/>
  
  <!-- Main farm building -->
  <rect x="10" y="14" width="12" height="8" fill="white" stroke="#065F46" stroke-width="1"/>
  
  <!-- Building roof -->
  <path d="M10 14L16 8L22 14V16H10V14Z" fill="white" stroke="#065F46" stroke-width="1"/>
  
  <!-- Windows -->
  <rect x="12" y="16" width="2" height="2" fill="#10B981"/>
  <rect x="18" y="16" width="2" height="2" fill="#10B981"/>
  
  <!-- Door -->
  <rect x="15" y="18" width="2" height="4" fill="#10B981"/>
  
  <!-- Ground line -->
  <rect x="2" y="24" width="28" height="2" fill="#065F46"/>
  
  <!-- Wheat/crop stalks on both sides -->
  <path d="M4 20L5 16L6 20H4Z" fill="white"/>
  <path d="M6 20L7 16L8 20H6Z" fill="white"/>
  <path d="M24 20L25 16L26 20H24Z" fill="white"/>
  <path d="M26 20L27 16L28 20H26Z" fill="white"/>
  
  <!-- Additional crop elements -->
  <path d="M8 20L9 17L10 20H8Z" fill="white"/>
  <path d="M22 20L23 17L24 20H22Z" fill="white"/>
  
  <!-- Small decorative elements (sun, clouds) -->
  <circle cx="6" cy="6" r="2" fill="white" opacity="0.9"/>
  <circle cx="26" cy="8" r="1.5" fill="white" opacity="0.7"/>
  <circle cx="28" cy="4" r="1" fill="white" opacity="0.5"/>
</svg>
