<svg width="32" height="32" viewBox="0 0 32 32" fill="none" xmlns="http://www.w3.org/2000/svg">
  <!-- Background circle with gradient -->
  <defs>
    <linearGradient id="bgGradient" x1="0%" y1="0%" x2="100%" y2="100%">
      <stop offset="0%" style="stop-color:#10B981;stop-opacity:1" />
      <stop offset="100%" style="stop-color:#059669;stop-opacity:1" />
    </linearGradient>
  </defs>
  <circle cx="16" cy="16" r="16" fill="url(#bgGradient)"/>
  
  <!-- Main farm building/silo -->
  <rect x="12" y="12" width="8" height="10" fill="white" stroke="#065F46" stroke-width="1"/>
  <rect x="13" y="14" width="2" height="2" fill="#10B981"/>
  <rect x="17" y="14" width="2" height="2" fill="#10B981"/>
  
  <!-- Silo top -->
  <path d="M12 12L16 8L20 12V14H12V12Z" fill="white" stroke="#065F46" stroke-width="1"/>
  
  <!-- Ground line -->
  <rect x="4" y="24" width="24" height="2" fill="#065F46"/>
  
  <!-- Wheat/crop stalks -->
  <path d="M6 20L7 16L8 20H6Z" fill="white"/>
  <path d="M8 20L9 16L10 20H8Z" fill="white"/>
  <path d="M22 20L23 16L24 20H22Z" fill="white"/>
  <path d="M24 20L25 16L26 20H24Z" fill="white"/>
  
  <!-- Small decorative elements -->
  <circle cx="6" cy="8" r="1" fill="white" opacity="0.8"/>
  <circle cx="26" cy="10" r="1" fill="white" opacity="0.8"/>
  <circle cx="28" cy="6" r="1" fill="white" opacity="0.6"/>
</svg>
